<svg width="489" height="413" viewBox="0 0 489 413" fill="none" xmlns="http://www.w3.org/2000/svg">
<g clip-path="url(#clip0_8_4)">
<path d="M375.52 383.135H154.084C152.711 383.134 151.395 382.588 150.424 381.618C149.454 380.648 148.908 379.333 148.906 377.961V226.859C148.908 225.487 149.454 224.172 150.424 223.202C151.395 222.232 152.711 221.686 154.084 221.684H375.52C376.892 221.686 378.208 222.232 379.179 223.202C380.15 224.172 380.696 225.487 380.697 226.859V377.961C380.696 379.333 380.15 380.648 379.179 381.618C378.208 382.588 376.892 383.134 375.52 383.135Z" fill="white"/>
<path d="M375.52 383.135H154.084C152.711 383.134 151.395 382.588 150.424 381.618C149.454 380.648 148.908 379.333 148.906 377.961V226.859C148.908 225.487 149.454 224.172 150.424 223.202C151.395 222.232 152.711 221.686 154.084 221.684H375.52C376.892 221.686 378.208 222.232 379.179 223.202C380.15 224.172 380.696 225.487 380.697 226.859V377.961C380.696 379.333 380.15 380.648 379.179 381.618C378.208 382.588 376.892 383.134 375.52 383.135ZM154.084 222.834C153.016 222.835 151.993 223.26 151.238 224.014C150.483 224.769 150.058 225.792 150.057 226.859V377.961C150.058 379.028 150.483 380.051 151.238 380.805C151.993 381.56 153.016 381.984 154.084 381.985H375.52C376.587 381.984 377.611 381.56 378.366 380.805C379.121 380.051 379.546 379.028 379.547 377.961V226.859C379.546 225.792 379.121 224.769 378.366 224.014C377.611 223.26 376.587 222.835 375.52 222.834H154.084Z" fill="#3F3D56"/>
<path d="M290.434 382.226H239.169V297.414C239.171 295.402 239.972 293.474 241.395 292.051C242.819 290.629 244.748 289.829 246.761 289.827H282.842C284.855 289.829 286.785 290.629 288.208 292.051C289.632 293.474 290.432 295.402 290.434 297.414V382.226Z" fill="#E6E6E6"/>
<path d="M363.443 189.476H334.166V140.582C334.168 139.21 334.714 137.895 335.685 136.925C336.655 135.955 337.971 135.409 339.344 135.408H358.265C359.638 135.409 360.954 135.955 361.925 136.925C362.895 137.895 363.441 139.21 363.443 140.582V189.476Z" fill="white"/>
<path d="M363.443 189.476H334.166V140.582C334.168 139.21 334.714 137.895 335.685 136.925C336.655 135.955 337.971 135.409 339.344 135.408H358.265C359.638 135.409 360.954 135.955 361.925 136.925C362.895 137.895 363.441 139.21 363.443 140.582V189.476ZM335.317 188.326H362.292V140.582C362.291 139.515 361.866 138.492 361.111 137.737C360.356 136.983 359.333 136.559 358.265 136.557H339.344C338.276 136.559 337.253 136.983 336.498 137.737C335.743 138.492 335.318 139.515 335.317 140.582V188.326Z" fill="#3F3D56"/>
<path d="M198.381 210.064C229.516 210.064 254.757 184.841 254.757 153.727C254.757 122.612 229.516 97.3891 198.381 97.3891C167.245 97.3891 142.004 122.612 142.004 153.727C142.004 184.841 167.245 210.064 198.381 210.064Z" fill="#F2F2F2"/>
<path d="M349.682 126.836C344.605 126.676 340.085 122.049 340.049 116.973C340.012 111.897 344.465 107.205 349.54 106.973C360.839 106.457 370.09 94.3394 367.603 83.3128C365.117 72.2862 351.559 65.3052 341.131 69.6815C333.131 73.0386 325.047 62.461 327.075 54.0304C329.102 45.5998 336.775 39.9386 343.874 34.9534C350.973 29.9682 358.567 24.115 360.281 15.6151C361.994 7.11521 353.222 -3.0667 345.493 0.873353" fill="#E6E6E6"/>
<path d="M217.516 314.463H174.212C172.484 314.461 170.828 313.774 169.607 312.554C168.385 311.333 167.698 309.678 167.696 307.952V272.276C167.698 270.55 168.385 268.895 169.607 267.674C170.828 266.454 172.484 265.767 174.212 265.765H217.516C219.243 265.767 220.899 266.454 222.121 267.674C223.342 268.895 224.029 270.55 224.031 272.276V307.952C224.029 309.678 223.342 311.333 222.121 312.554C220.899 313.774 219.243 314.461 217.516 314.463Z" fill="#E6E6E6"/>
<path d="M356.394 314.463H313.089C311.362 314.461 309.706 313.774 308.485 312.554C307.263 311.333 306.576 309.678 306.574 307.952V272.276C306.576 270.55 307.263 268.895 308.485 267.674C309.706 266.454 311.362 265.767 313.089 265.765H356.394C358.121 265.767 359.777 266.454 360.998 267.674C362.22 268.895 362.907 270.55 362.909 272.276V307.952C362.907 309.678 362.22 311.333 360.999 312.554C359.777 313.774 358.121 314.461 356.394 314.463Z" fill="#E6E6E6"/>
<path d="M132.373 224.792V201.544C132.373 199.758 132.846 198.004 133.743 196.459C134.64 194.915 135.929 193.634 137.481 192.748L266.74 118.92C268.345 118.004 270.17 117.543 272.017 117.588C273.865 117.633 275.665 118.181 277.223 119.174L392.544 192.678C393.98 193.594 395.162 194.856 395.982 196.349C396.801 197.842 397.23 199.517 397.23 201.22V224.792C397.23 227.479 396.162 230.056 394.261 231.956C392.359 233.856 389.781 234.923 387.092 234.923H142.511C139.823 234.923 137.244 233.856 135.343 231.956C133.442 230.056 132.373 227.479 132.373 224.792Z" fill="#2E775F"/>
<path opacity="0.2" d="M387.092 224.573H142.511C139.823 224.573 137.244 223.505 135.343 221.605C133.442 219.706 132.373 217.129 132.373 214.442V223.64C132.373 226.327 133.442 228.904 135.343 230.804C137.244 232.704 139.823 233.772 142.511 233.772H387.092C389.781 233.772 392.359 232.704 394.261 230.804C396.162 228.904 397.23 226.327 397.23 223.64V214.442C397.23 217.129 396.162 219.706 394.261 221.605C392.359 223.505 389.781 224.573 387.092 224.573Z" fill="black"/>
<path d="M406.95 304.128C406.95 286.3 421.413 243.995 439.253 243.995C457.093 243.995 471.556 286.3 471.556 304.128C471.556 312.69 468.152 320.9 462.094 326.954C456.036 333.008 447.82 336.409 439.253 336.409C430.686 336.409 422.469 333.008 416.411 326.954C410.354 320.9 406.95 312.69 406.95 304.128Z" fill="#F2F2F2"/>
<path d="M439.253 382.449C439.1 382.449 438.954 382.389 438.846 382.281C438.738 382.173 438.677 382.027 438.677 381.874V265.964C438.677 265.811 438.738 265.665 438.846 265.557C438.954 265.449 439.1 265.389 439.253 265.389C439.405 265.389 439.552 265.449 439.66 265.557C439.768 265.665 439.828 265.811 439.828 265.964V381.874C439.828 382.027 439.767 382.173 439.66 382.281C439.552 382.389 439.405 382.449 439.253 382.449Z" fill="#3F3D56"/>
<path d="M439.253 317.365C439.14 317.365 439.03 317.332 438.936 317.27C438.842 317.208 438.768 317.12 438.724 317.016C438.68 316.913 438.667 316.799 438.687 316.688C438.707 316.577 438.759 316.475 438.836 316.393L455.257 299.174C455.309 299.119 455.372 299.075 455.441 299.044C455.51 299.014 455.584 298.997 455.66 298.995C455.735 298.994 455.811 299.007 455.881 299.034C455.951 299.061 456.016 299.102 456.071 299.154C456.125 299.206 456.169 299.268 456.2 299.337C456.23 299.407 456.247 299.481 456.249 299.556C456.251 299.632 456.238 299.707 456.21 299.777C456.183 299.848 456.142 299.912 456.09 299.967L439.669 317.187C439.616 317.243 439.551 317.288 439.479 317.319C439.408 317.349 439.331 317.365 439.253 317.365Z" fill="#3F3D56"/>
<path d="M439.253 288.333C439.109 288.333 438.97 288.279 438.865 288.182L424.674 275.216C424.618 275.165 424.572 275.104 424.54 275.036C424.508 274.967 424.49 274.893 424.486 274.817C424.483 274.742 424.494 274.666 424.52 274.595C424.546 274.524 424.585 274.459 424.636 274.403C424.687 274.347 424.749 274.302 424.818 274.27C424.886 274.238 424.96 274.22 425.036 274.217C425.112 274.213 425.187 274.225 425.258 274.251C425.329 274.277 425.395 274.317 425.45 274.368L439.641 287.333C439.727 287.412 439.787 287.514 439.813 287.627C439.839 287.74 439.831 287.858 439.789 287.966C439.747 288.074 439.673 288.167 439.578 288.232C439.482 288.298 439.369 288.333 439.253 288.333Z" fill="#3F3D56"/>
<path d="M12.6731 268.656C12.6731 242.431 33.9478 180.198 60.1915 180.198C86.4353 180.198 107.71 242.431 107.71 268.656C107.71 281.25 102.704 293.329 93.7922 302.234C84.8807 311.139 72.7942 316.142 60.1915 316.142C47.5889 316.142 35.5023 311.139 26.5909 302.234C17.6795 293.329 12.6731 281.25 12.6731 268.656Z" fill="#2E775F"/>
<path d="M60.1916 383.599C60.039 383.599 59.8927 383.538 59.7848 383.431C59.6769 383.323 59.6163 383.177 59.6163 383.024V212.515C59.6163 212.362 59.6769 212.216 59.7848 212.108C59.8927 212 60.039 211.94 60.1916 211.94C60.3442 211.94 60.4905 212 60.5984 212.108C60.7063 212.216 60.7669 212.362 60.7669 212.515V383.024C60.7669 383.177 60.7063 383.323 60.5984 383.431C60.4905 383.538 60.3442 383.599 60.1916 383.599Z" fill="#3F3D56"/>
<path d="M60.1915 287.857C60.0789 287.857 59.9688 287.824 59.8747 287.762C59.7807 287.7 59.707 287.612 59.6627 287.509C59.6183 287.405 59.6054 287.291 59.6253 287.18C59.6453 287.07 59.6974 286.967 59.7751 286.886L83.9307 261.555C84.036 261.444 84.1808 261.38 84.3334 261.376C84.4859 261.373 84.6337 261.43 84.7442 261.535C84.8546 261.64 84.9188 261.785 84.9224 261.937C84.9261 262.09 84.869 262.238 84.7638 262.348L60.608 287.679C60.5544 287.735 60.4897 287.78 60.4181 287.811C60.3465 287.842 60.2694 287.857 60.1915 287.857Z" fill="#3F3D56"/>
<path d="M60.1914 245.15C60.0478 245.15 59.9093 245.096 59.8033 244.999L38.928 225.926C38.8154 225.823 38.7483 225.68 38.7415 225.527C38.7347 225.375 38.7887 225.226 38.8917 225.114C38.9946 225.001 39.1381 224.934 39.2905 224.927C39.443 224.92 39.5919 224.974 39.7045 225.077L60.5798 244.151C60.6654 244.229 60.7253 244.331 60.7518 244.444C60.7782 244.557 60.7698 244.675 60.7278 244.783C60.6859 244.891 60.6122 244.984 60.5164 245.049C60.4207 245.115 60.3074 245.15 60.1914 245.15Z" fill="#3F3D56"/>
<path d="M416.688 382.392C416.742 382.434 416.8 382.472 416.855 382.513H463.634C464.55 378.802 464.874 375.087 463.505 371.861C461.554 367.263 455.781 364.393 451.191 366.368C450.103 366.848 449.156 367.597 448.438 368.544C446.644 365.336 443.427 362.916 439.713 362.919C435.06 362.922 431.191 366.725 429.929 371.117C427.896 367.688 423.88 365.291 419.955 366.322C413.39 368.047 411.317 378.245 416.688 382.392Z" fill="#E6E6E6"/>
<path d="M14.8091 383.419C14.919 383.504 15.035 383.58 15.1462 383.663H109.58C111.431 376.171 112.084 368.671 109.32 362.158C105.382 352.877 93.7272 347.084 84.4615 351.07C82.2661 352.039 80.3538 353.551 78.9044 355.463C75.2834 348.986 68.788 344.102 61.2907 344.108C51.8977 344.114 44.0879 351.791 41.5392 360.657C37.4353 353.735 29.3289 348.897 21.4053 350.978C8.15311 354.459 3.96718 375.046 14.8091 383.419Z" fill="#E6E6E6"/>
<path d="M488.998 381.988L0 382.913L0.00217712 384.063L489 383.138L488.998 381.988Z" fill="#3F3D56"/>
<path d="M165.009 358.59C165.126 358.135 165.141 357.661 165.055 357.2C164.968 356.738 164.781 356.302 164.507 355.921C164.234 355.539 163.88 355.223 163.47 354.993C163.061 354.764 162.606 354.626 162.138 354.591L143.868 331.765L139.347 335.975L158.647 357.78C158.641 358.57 158.924 359.335 159.444 359.93C159.964 360.525 160.684 360.909 161.468 361.008C162.252 361.108 163.046 360.917 163.699 360.471C164.351 360.025 164.817 359.356 165.009 358.59Z" fill="#FFB8B8"/>
<path d="M147.373 335.391L141.599 339.81C141.434 339.935 141.245 340.024 141.043 340.07C140.841 340.116 140.632 340.118 140.429 340.076C140.227 340.034 140.036 339.948 139.869 339.826C139.702 339.703 139.564 339.546 139.464 339.365L135.947 333.029C135.308 332.185 135.03 331.123 135.174 330.075C135.317 329.027 135.871 328.079 136.714 327.438C137.556 326.797 138.618 326.516 139.667 326.657C140.717 326.798 141.667 327.348 142.311 328.188L147.5 333.215C147.648 333.359 147.764 333.534 147.839 333.726C147.914 333.919 147.947 334.126 147.935 334.332C147.922 334.539 147.866 334.74 147.769 334.923C147.672 335.105 147.537 335.265 147.373 335.391Z" fill="#3F3D56"/>
<path d="M137.676 321.61C141.731 321.61 145.018 318.325 145.018 314.273C145.018 310.221 141.731 306.935 137.676 306.935C133.621 306.935 130.333 310.221 130.333 314.273C130.333 318.325 133.621 321.61 137.676 321.61Z" fill="#FFB8B8"/>
<path d="M153.349 409.45H157.014L156.665 402.595H151.256L153.349 409.45Z" fill="#FFB8B8"/>
<path d="M152.414 408.254L159.632 408.254C160.236 408.254 160.834 408.373 161.392 408.604C161.95 408.835 162.458 409.173 162.885 409.6C163.312 410.027 163.651 410.534 163.882 411.091C164.113 411.649 164.232 412.247 164.232 412.85V413L152.414 413L152.414 408.254Z" fill="#2F2E41"/>
<path d="M114.273 404.264L117.391 406.189L120.699 400.174L116.926 397.815L114.273 404.264Z" fill="#FFB8B8"/>
<path d="M114.106 402.756L120.247 406.546C120.761 406.864 121.207 407.279 121.561 407.769C121.914 408.258 122.167 408.813 122.306 409.4C122.445 409.988 122.467 410.597 122.37 411.193C122.274 411.788 122.061 412.359 121.743 412.873L121.664 413L111.61 406.794L114.106 402.756Z" fill="#2F2E41"/>
<path d="M153.084 407.44C152.812 407.44 152.546 407.357 152.321 407.202C152.097 407.047 151.926 406.828 151.829 406.573L138.572 374.899C138.543 374.821 138.494 374.753 138.429 374.702C138.365 374.651 138.287 374.619 138.205 374.609C138.123 374.599 138.04 374.612 137.965 374.646C137.89 374.68 137.826 374.734 137.78 374.802L119.567 403.473C119.389 403.74 119.121 403.934 118.811 404.02C118.502 404.106 118.172 404.079 117.881 403.942L115.389 402.78C115.07 402.629 114.822 402.36 114.699 402.03C114.576 401.699 114.588 401.333 114.731 401.011L129.652 367.773C129.326 366.981 126.148 358.848 131.031 354.83L131.065 354.809L144.305 348.907L144.639 359.057L157.836 404.813C157.885 404.986 157.9 405.166 157.879 405.344C157.858 405.522 157.802 405.694 157.713 405.85C157.625 406.006 157.506 406.142 157.364 406.251C157.221 406.361 157.059 406.44 156.885 406.486L153.429 407.395C153.316 407.425 153.2 407.44 153.084 407.44Z" fill="#2F2E41"/>
<path d="M144.506 334.06C144.001 332.038 143.287 330 142.329 329.059C141.977 328.716 141.646 328.352 141.338 327.969C140.694 327.158 139.883 326.494 138.961 326.022C139.299 325.835 139.496 325.611 139.496 325.37C139.496 324.71 138.024 324.175 136.208 324.175C134.392 324.175 132.92 324.71 132.92 325.37C132.924 325.447 132.944 325.522 132.977 325.591C133.011 325.66 133.058 325.722 133.115 325.772C131.929 326.256 130.899 327.055 130.136 328.083C129.373 329.111 128.907 330.328 128.789 331.602C128.364 336.148 128.24 341.958 129.728 345.634C130.977 348.673 131.076 352.062 130.008 355.169C129.935 355.386 129.926 355.618 129.982 355.839C130.038 356.061 130.156 356.261 130.323 356.418C130.489 356.574 130.697 356.679 130.921 356.721C131.145 356.763 131.377 356.74 131.589 356.654L144.727 351.363C144.948 351.274 145.137 351.121 145.271 350.924C145.404 350.726 145.475 350.493 145.475 350.255V342.22C145.486 339.471 145.16 336.73 144.506 334.06Z" fill="#3F3D56"/>
<path d="M119.369 367.155C119.826 367.049 120.254 366.844 120.624 366.554C120.993 366.265 121.295 365.898 121.507 365.479C121.719 365.061 121.837 364.601 121.852 364.132C121.867 363.663 121.779 363.197 121.594 362.765L131.873 335.676L126.661 334.332L117.153 361.141C116.448 361.5 115.9 362.104 115.612 362.839C115.323 363.575 115.315 364.39 115.588 365.132C115.861 365.873 116.397 366.488 117.093 366.861C117.79 367.234 118.6 367.339 119.369 367.155Z" fill="#FFB8B8"/>
<path d="M131.83 340.817L125.244 337.735C125.056 337.648 124.89 337.521 124.756 337.363C124.622 337.205 124.524 337.021 124.468 336.822C124.412 336.623 124.399 336.414 124.431 336.209C124.463 336.005 124.539 335.81 124.653 335.638L128.656 329.596C129.112 328.642 129.927 327.907 130.923 327.552C131.919 327.197 133.016 327.25 133.972 327.701C134.929 328.152 135.668 328.964 136.028 329.958C136.387 330.952 136.338 332.048 135.89 333.006L133.82 339.926C133.761 340.124 133.66 340.307 133.523 340.462C133.387 340.618 133.218 340.742 133.029 340.826C132.841 340.911 132.636 340.954 132.429 340.952C132.222 340.95 132.018 340.904 131.83 340.817Z" fill="#3F3D56"/>
<path d="M144.42 312.467C144.751 312.506 145.087 312.446 145.383 312.293C145.925 311.939 145.871 311.134 145.688 310.513C145.232 309.026 144.407 307.678 143.292 306.593C142.176 305.508 140.805 304.722 139.305 304.306C138.26 304.028 136.937 304.039 136.339 304.94C134.836 303.939 133.025 303.51 131.232 303.73C129.44 303.95 127.786 304.805 126.57 306.139C125.382 307.532 124.59 309.218 124.277 311.022C123.65 314.093 120.963 320.43 122.451 323.189C123.442 325.026 128 323.595 129.928 324.395C130.888 324.812 131.937 324.987 132.98 324.903C134.024 324.818 135.031 324.478 135.912 323.912C136.774 323.318 137.422 322.462 137.76 321.471C138.098 320.481 138.109 319.408 137.79 318.411C137.452 317.678 137.063 316.97 136.625 316.292C136.186 315.606 136.006 314.786 136.12 313.979C136.39 312.752 142.185 312.421 144.42 312.467Z" fill="#2F2E41"/>
</g>
<defs>
<clipPath id="clip0_8_4">
<rect width="489" height="413" fill="white"/>
</clipPath>
</defs>
</svg>
