<svg width="132" height="131" viewBox="0 0 132 131" fill="none" xmlns="http://www.w3.org/2000/svg">
<g clip-path="url(#clip0_4_173)">
<path d="M67.0335 85.097C78.7191 85.097 88.1922 75.624 88.1922 63.9384C88.1922 52.2528 78.7191 42.7798 67.0335 42.7798C55.3479 42.7798 45.8749 52.2528 45.8749 63.9384C45.8749 75.624 55.3479 85.097 67.0335 85.097Z" fill="#FFB6B6"/>
<path d="M54.8871 88.2259L53.9312 78.5632L73.0197 74.9939L84.2914 102.438L64.6885 124.981L50.7214 97.5373L54.8871 88.2259Z" fill="#FFB6B6"/>
<path d="M53.6245 83.3999L57.7978 84.3428C57.7978 84.3428 54.5172 73.9399 55.6307 72.9468C56.7442 71.9536 59.4729 73.5185 59.4729 73.5185L62.3403 76.7334L65.833 73.1773C65.833 73.1773 69.6249 68.4623 71.1096 67.1381C72.5943 65.8138 70.2096 60.8985 70.2096 60.8985C70.2096 60.8985 92.2363 54.959 84.0401 44.2754C84.0401 44.2754 79.2348 35.8989 77.6698 38.6276C76.1049 41.3563 74.2389 37.0226 74.2389 37.0226L68.5409 38.1061C68.5409 38.1061 57.2951 31.4753 46.6216 45.6605C35.948 59.8456 53.6245 83.3999 53.6245 83.3999Z" fill="#2F2E41"/>
<path d="M106.828 115.89C95.2642 125.265 80.959 130.359 65.8672 130.359C52.0864 130.359 38.9598 126.11 27.9797 118.235C27.9993 118.029 28.0189 117.826 28.036 117.622C28.3276 114.437 28.5874 111.34 28.7589 108.772C29.4229 98.8011 52.6842 92.1558 52.6842 92.1558C52.6842 92.1558 52.7896 92.2611 53.0004 92.4449C54.2843 93.5721 59.4963 97.6593 68.6361 98.8011C76.786 99.8205 79.4692 94.9859 80.2803 92.6703C80.5253 91.9646 80.5988 91.4917 80.5988 91.4917L104.524 102.79C106.085 105.02 106.695 109.823 106.815 115.221C106.82 115.444 106.825 115.665 106.828 115.89Z" fill="#1CA684"/>
<path d="M111.956 19.0908C99.6455 6.78015 83.277 0 65.8672 0C48.4573 0 32.0889 6.78015 19.7783 19.0908C7.46767 31.4014 0.6875 47.7699 0.6875 65.1797C0.6875 81.0703 6.3356 96.0935 16.6859 107.956C17.6734 109.09 18.705 110.195 19.7783 111.269C20.0307 111.521 20.2855 111.773 20.5428 112.018C21.2289 112.682 21.9273 113.332 22.6379 113.962C23.0691 114.346 23.5053 114.724 23.9464 115.094C24.2919 115.385 24.6374 115.672 24.9878 115.954C24.9951 115.961 25 115.966 25.0074 115.971C25.9802 116.755 26.9701 117.51 27.9797 118.235C38.9597 126.11 52.0863 130.359 65.8672 130.359C80.959 130.359 95.2642 125.265 106.827 115.89C107.771 115.125 108.695 114.332 109.601 113.511C110.403 112.785 111.187 112.038 111.956 111.269C112.199 111.026 112.441 110.781 112.679 110.533C113.341 109.852 113.983 109.159 114.61 108.456C125.237 96.5174 131.047 81.2957 131.047 65.1797C131.047 47.7699 124.267 31.4014 111.956 19.0908ZM114.451 107.845C113.838 108.541 113.211 109.227 112.569 109.896C111.569 110.938 110.537 111.947 109.471 112.92C109.067 113.293 108.658 113.655 108.244 114.015C107.773 114.425 107.298 114.827 106.815 115.221C103.01 118.345 98.8417 121.041 94.3845 123.236C92.6227 124.106 90.8168 124.898 88.9692 125.606C81.7921 128.36 74.0024 129.869 65.8672 129.869C58.0162 129.869 50.4887 128.463 43.5223 125.89C40.6627 124.836 37.8987 123.584 35.245 122.151C34.8554 121.94 34.4682 121.727 34.0835 121.509C32.0595 120.362 30.1017 119.11 28.2223 117.757C28.161 117.713 28.0973 117.666 28.036 117.622C26.6981 116.657 25.397 115.64 24.1399 114.572C23.6793 114.182 23.2235 113.788 22.7751 113.383C22.0449 112.734 21.3294 112.065 20.631 111.379C19.3078 110.083 18.0434 108.732 16.8354 107.328C7.08051 95.9979 1.17757 81.2663 1.17757 65.1797C1.17757 29.5097 30.1973 0.490073 65.8672 0.490073C101.537 0.490073 130.557 29.5097 130.557 65.1797C130.557 81.5138 124.473 96.4512 114.451 107.845Z" fill="#3F3D56"/>
</g>
<defs>
<clipPath id="clip0_4_173">
<rect width="130.359" height="130.359" fill="white" transform="translate(0.6875)"/>
</clipPath>
</defs>
</svg>
